<svg xmlns="http://www.w3.org/2000/svg" viewBox="0 0 64 64">
  <defs>
    <radialGradient id="grad" cx="50%" cy="50%" r="50%">
      <stop offset="0%" stop-color="#1a1a40"/>
      <stop offset="50%" stop-color="#3a206e"/>
      <stop offset="80%" stop-color="#7c3aed"/>
      <stop offset="100%" stop-color="#ffb3fe"/>
    </radialGradient>
    <filter id="subtleGlow" x="-20%" y="-20%" width="140%" height="140%">
      <feGaussianBlur stdDeviation="1.2" result="blur"/>
      <feMerge>
        <feMergeNode in="blur"/>
        <feMergeNode in="SourceGraphic"/>
      </feMerge>
    </filter>
    <radialGradient id="orb1" cx="50%" cy="50%" r="50%">
      <stop offset="0%" stop-color="#ffe6fa" stop-opacity="0.85"/>
      <stop offset="100%" stop-color="#7c3aed" stop-opacity="0.18"/>
    </radialGradient>
    <radialGradient id="orb2" cx="50%" cy="50%" r="50%">
      <stop offset="0%" stop-color="#00fff7" stop-opacity="0.45"/>
      <stop offset="100%" stop-color="#1a1a40" stop-opacity="0.08"/>
    </radialGradient>
    <radialGradient id="orb3" cx="50%" cy="50%" r="50%">
      <stop offset="0%" stop-color="#ffb3fe" stop-opacity="0.5"/>
      <stop offset="100%" stop-color="#7c3aed" stop-opacity="0.08"/>
    </radialGradient>
  </defs>
  <!-- Dreamy gradient background -->
  <circle cx="32" cy="32" r="32" fill="url(#grad)"/>
  <!-- Orbs -->
  <circle cx="18" cy="20" r="7" fill="url(#orb1)" opacity="0.65"/>
  <circle cx="46" cy="18" r="5" fill="url(#orb2)" opacity="0.38"/>
  <circle cx="40" cy="44" r="6" fill="url(#orb3)" opacity="0.38"/>
  <!-- Stars -->
  <g opacity="0.38">
    <circle cx="25" cy="12" r="0.7" fill="#ffe6fa"/>
    <circle cx="38" cy="10" r="0.5" fill="#b39ddb"/>
    <circle cx="50" cy="28" r="0.6" fill="#fff"/>
    <circle cx="15" cy="38" r="0.5" fill="#7c3aed"/>
    <circle cx="28" cy="50" r="0.4" fill="#ffb3fe"/>
    <circle cx="48" cy="48" r="0.5" fill="#00fff7"/>
    <circle cx="20" cy="28" r="0.3" fill="#fff"/>
  </g>
  <!-- Stylized F: gradient fill, shadow, and digital accent -->
  <defs>
    <linearGradient id="fgrad" x1="0" y1="0" x2="1" y2="1">
      <stop offset="0%" stop-color="#fff"/>
      <stop offset="100%" stop-color="#e0e7ff"/>
    </linearGradient>
    <filter id="fshadow" x="-20%" y="-20%" width="140%" height="140%">
      <feDropShadow dx="0.5" dy="1.5" stdDeviation="1.2" flood-color="#7c3aed" flood-opacity="0.5"/>
    </filter>
  </defs>
  <g filter="url(#fshadow)">
    <!-- F main body -->
    <path d="M24 44 L24 20 L40 20 L40 24 L28 24 L28 30 L38 30 L38 34 L28 34 L28 44 Z" fill="url(#fgrad)" stroke="#fff" stroke-width="1.3"/>
    <!-- Digital accent: small square -->
    <rect x="36.5" y="32.5" width="2" height="2" rx="0.5" fill="#00fff7" opacity="0.8"/>
    <!-- Accent line -->
    <polyline points="28,24 28,30 38,30" fill="none" stroke="#ffb3fe" stroke-width="1.1" opacity="0.85"/>
  </g>
  <circle cx="32" cy="32" r="18" fill="none" stroke="#b39ddb" stroke-width="1.2" opacity="0.18"/>
</svg>
